<mxfile host="app.diagrams.net" modified="2023-09-14T12:26:20.322Z" agent="Mozilla/5.0 (Macintosh; Intel Mac OS X 10_15_7) AppleWebKit/605.1.15 (KHTML, like Gecko) Version/16.4 Safari/605.1.15" etag="N-Us5TsXRbnBEgYVqcc8" version="21.7.5" type="github">
  <diagram name="Page-1" id="G13_HgCjJFvPaRupRoIi">
    <mxGraphModel dx="1224" dy="667" grid="1" gridSize="10" guides="1" tooltips="1" connect="1" arrows="1" fold="1" page="1" pageScale="1" pageWidth="827" pageHeight="1169" math="0" shadow="0">
      <root>
        <mxCell id="0" />
        <mxCell id="1" parent="0" />
        <mxCell id="ih8ZZnjObs0xB7PXUDS3-1" value="Menneske" style="whiteSpace=wrap;html=1;align=center;" parent="1" vertex="1">
          <mxGeometry x="240" y="250" width="100" height="40" as="geometry" />
        </mxCell>
        <mxCell id="ih8ZZnjObs0xB7PXUDS3-2" value="PersonNmr." style="ellipse;whiteSpace=wrap;html=1;align=center;fontStyle=4;" parent="1" vertex="1">
          <mxGeometry x="195" y="162.5" width="70" height="30" as="geometry" />
        </mxCell>
        <mxCell id="ih8ZZnjObs0xB7PXUDS3-3" value="" style="endArrow=none;html=1;rounded=0;exitX=0.15;exitY=0;exitDx=0;exitDy=0;exitPerimeter=0;entryX=0.345;entryY=1;entryDx=0;entryDy=0;entryPerimeter=0;" parent="1" source="ih8ZZnjObs0xB7PXUDS3-1" target="ih8ZZnjObs0xB7PXUDS3-2" edge="1">
          <mxGeometry relative="1" as="geometry">
            <mxPoint x="70" y="250" as="sourcePoint" />
            <mxPoint x="230" y="250" as="targetPoint" />
          </mxGeometry>
        </mxCell>
        <mxCell id="ih8ZZnjObs0xB7PXUDS3-4" value="Navn" style="ellipse;whiteSpace=wrap;html=1;align=center;" parent="1" vertex="1">
          <mxGeometry x="80" y="260" width="80" height="20" as="geometry" />
        </mxCell>
        <mxCell id="ih8ZZnjObs0xB7PXUDS3-5" value="forNavn" style="ellipse;whiteSpace=wrap;html=1;align=center;" parent="1" vertex="1">
          <mxGeometry x="120" y="200" width="90" height="20" as="geometry" />
        </mxCell>
        <mxCell id="ih8ZZnjObs0xB7PXUDS3-6" value="etterNavn" style="ellipse;whiteSpace=wrap;html=1;align=center;" parent="1" vertex="1">
          <mxGeometry y="200" width="80" height="20" as="geometry" />
        </mxCell>
        <mxCell id="ih8ZZnjObs0xB7PXUDS3-14" value="Alder" style="ellipse;whiteSpace=wrap;html=1;align=center;dashed=1;" parent="1" vertex="1">
          <mxGeometry x="310" y="160" width="80" height="30" as="geometry" />
        </mxCell>
        <mxCell id="ih8ZZnjObs0xB7PXUDS3-15" value="Fødselsdato" style="ellipse;whiteSpace=wrap;html=1;align=center;" parent="1" vertex="1">
          <mxGeometry x="420" y="160" width="70" height="35" as="geometry" />
        </mxCell>
        <mxCell id="ih8ZZnjObs0xB7PXUDS3-16" value="" style="endArrow=none;html=1;rounded=0;entryX=0.455;entryY=1.013;entryDx=0;entryDy=0;entryPerimeter=0;exitX=0.89;exitY=-0.012;exitDx=0;exitDy=0;exitPerimeter=0;" parent="1" source="ih8ZZnjObs0xB7PXUDS3-1" target="ih8ZZnjObs0xB7PXUDS3-15" edge="1">
          <mxGeometry relative="1" as="geometry">
            <mxPoint x="50" y="280" as="sourcePoint" />
            <mxPoint x="210" y="280" as="targetPoint" />
          </mxGeometry>
        </mxCell>
        <mxCell id="ih8ZZnjObs0xB7PXUDS3-17" value="" style="endArrow=none;html=1;rounded=0;entryX=0.465;entryY=1;entryDx=0;entryDy=0;entryPerimeter=0;exitX=0.5;exitY=0;exitDx=0;exitDy=0;" parent="1" source="ih8ZZnjObs0xB7PXUDS3-1" target="ih8ZZnjObs0xB7PXUDS3-14" edge="1">
          <mxGeometry relative="1" as="geometry">
            <mxPoint x="50" y="280" as="sourcePoint" />
            <mxPoint x="80" y="200" as="targetPoint" />
          </mxGeometry>
        </mxCell>
        <mxCell id="ih8ZZnjObs0xB7PXUDS3-18" value="Bolig" style="whiteSpace=wrap;html=1;align=center;" parent="1" vertex="1">
          <mxGeometry x="630" y="250" width="100" height="40" as="geometry" />
        </mxCell>
        <mxCell id="ih8ZZnjObs0xB7PXUDS3-20" value="BOR-I" style="shape=rhombus;perimeter=rhombusPerimeter;whiteSpace=wrap;html=1;align=center;" parent="1" vertex="1">
          <mxGeometry x="420" y="240" width="120" height="60" as="geometry" />
        </mxCell>
        <mxCell id="ih8ZZnjObs0xB7PXUDS3-21" value="" style="endArrow=none;html=1;rounded=0;exitX=1;exitY=0.5;exitDx=0;exitDy=0;entryX=0;entryY=0.5;entryDx=0;entryDy=0;" parent="1" source="ih8ZZnjObs0xB7PXUDS3-1" target="ih8ZZnjObs0xB7PXUDS3-20" edge="1">
          <mxGeometry relative="1" as="geometry">
            <mxPoint x="90" y="290" as="sourcePoint" />
            <mxPoint x="250" y="290" as="targetPoint" />
          </mxGeometry>
        </mxCell>
        <mxCell id="ih8ZZnjObs0xB7PXUDS3-23" value="N" style="edgeLabel;html=1;align=center;verticalAlign=middle;resizable=0;points=[];" parent="ih8ZZnjObs0xB7PXUDS3-21" vertex="1" connectable="0">
          <mxGeometry x="0.3714" y="1" relative="1" as="geometry">
            <mxPoint y="1" as="offset" />
          </mxGeometry>
        </mxCell>
        <mxCell id="ih8ZZnjObs0xB7PXUDS3-22" value="" style="endArrow=none;html=1;rounded=0;entryX=0;entryY=0.5;entryDx=0;entryDy=0;exitX=1;exitY=0.5;exitDx=0;exitDy=0;" parent="1" source="ih8ZZnjObs0xB7PXUDS3-20" target="ih8ZZnjObs0xB7PXUDS3-18" edge="1">
          <mxGeometry relative="1" as="geometry">
            <mxPoint x="90" y="290" as="sourcePoint" />
            <mxPoint x="250" y="290" as="targetPoint" />
          </mxGeometry>
        </mxCell>
        <mxCell id="ih8ZZnjObs0xB7PXUDS3-50" value="1" style="edgeLabel;html=1;align=center;verticalAlign=middle;resizable=0;points=[];" parent="ih8ZZnjObs0xB7PXUDS3-22" vertex="1" connectable="0">
          <mxGeometry x="-0.83" y="1" relative="1" as="geometry">
            <mxPoint y="1" as="offset" />
          </mxGeometry>
        </mxCell>
        <mxCell id="ih8ZZnjObs0xB7PXUDS3-24" value="" style="endArrow=none;html=1;rounded=0;entryX=0.02;entryY=0.588;entryDx=0;entryDy=0;entryPerimeter=0;exitX=0.925;exitY=0.575;exitDx=0;exitDy=0;exitPerimeter=0;" parent="1" source="ih8ZZnjObs0xB7PXUDS3-20" target="ih8ZZnjObs0xB7PXUDS3-18" edge="1">
          <mxGeometry relative="1" as="geometry">
            <mxPoint x="90" y="290" as="sourcePoint" />
            <mxPoint x="250" y="290" as="targetPoint" />
          </mxGeometry>
        </mxCell>
        <mxCell id="ih8ZZnjObs0xB7PXUDS3-25" value="Type" style="ellipse;whiteSpace=wrap;html=1;align=center;" parent="1" vertex="1">
          <mxGeometry x="720" y="145" width="76" height="35" as="geometry" />
        </mxCell>
        <mxCell id="ih8ZZnjObs0xB7PXUDS3-26" value="Adresse" style="whiteSpace=wrap;html=1;align=center;shape=ellipse;perimeter=ellipsePerimeter;fontStyle=4;" parent="1" vertex="1">
          <mxGeometry x="600" y="150" width="80" height="30" as="geometry" />
        </mxCell>
        <mxCell id="ih8ZZnjObs0xB7PXUDS3-27" value="" style="endArrow=none;html=1;rounded=0;entryX=0.5;entryY=1;entryDx=0;entryDy=0;" parent="1" source="ih8ZZnjObs0xB7PXUDS3-18" target="ih8ZZnjObs0xB7PXUDS3-25" edge="1">
          <mxGeometry relative="1" as="geometry">
            <mxPoint x="250" y="290" as="sourcePoint" />
            <mxPoint x="410" y="290" as="targetPoint" />
          </mxGeometry>
        </mxCell>
        <mxCell id="ih8ZZnjObs0xB7PXUDS3-28" value="" style="endArrow=none;html=1;rounded=0;entryX=0.5;entryY=1;entryDx=0;entryDy=0;exitX=0.25;exitY=0;exitDx=0;exitDy=0;" parent="1" source="ih8ZZnjObs0xB7PXUDS3-18" target="ih8ZZnjObs0xB7PXUDS3-26" edge="1">
          <mxGeometry relative="1" as="geometry">
            <mxPoint x="250" y="290" as="sourcePoint" />
            <mxPoint x="410" y="290" as="targetPoint" />
          </mxGeometry>
        </mxCell>
        <mxCell id="ih8ZZnjObs0xB7PXUDS3-29" value="inneHold" style="shape=rhombus;whiteSpace=wrap;html=1;align=center;double=1;perimeter=rhombusPerimeter;" parent="1" vertex="1">
          <mxGeometry x="620" y="330" width="120" height="60" as="geometry" />
        </mxCell>
        <mxCell id="ih8ZZnjObs0xB7PXUDS3-30" value="Rom" style="whiteSpace=wrap;html=1;align=center;shape=ext;margin=3;double=1;" parent="1" vertex="1">
          <mxGeometry x="640" y="430" width="100" height="40" as="geometry" />
        </mxCell>
        <mxCell id="ih8ZZnjObs0xB7PXUDS3-31" value="" style="endArrow=none;html=1;rounded=0;entryX=0.5;entryY=1;entryDx=0;entryDy=0;" parent="1" source="ih8ZZnjObs0xB7PXUDS3-29" target="ih8ZZnjObs0xB7PXUDS3-18" edge="1">
          <mxGeometry relative="1" as="geometry">
            <mxPoint x="160" y="380" as="sourcePoint" />
            <mxPoint x="320" y="380" as="targetPoint" />
          </mxGeometry>
        </mxCell>
        <mxCell id="ih8ZZnjObs0xB7PXUDS3-49" value="1" style="edgeLabel;html=1;align=center;verticalAlign=middle;resizable=0;points=[];" parent="ih8ZZnjObs0xB7PXUDS3-31" vertex="1" connectable="0">
          <mxGeometry x="-0.3" relative="1" as="geometry">
            <mxPoint as="offset" />
          </mxGeometry>
        </mxCell>
        <mxCell id="ih8ZZnjObs0xB7PXUDS3-32" value="" style="endArrow=none;html=1;rounded=0;entryX=0.5;entryY=1;entryDx=0;entryDy=0;exitX=0.42;exitY=0.038;exitDx=0;exitDy=0;exitPerimeter=0;" parent="1" source="ih8ZZnjObs0xB7PXUDS3-30" target="ih8ZZnjObs0xB7PXUDS3-29" edge="1">
          <mxGeometry relative="1" as="geometry">
            <mxPoint x="380" y="390" as="sourcePoint" />
            <mxPoint x="320" y="380" as="targetPoint" />
          </mxGeometry>
        </mxCell>
        <mxCell id="ih8ZZnjObs0xB7PXUDS3-38" value="&lt;span style=&quot;border-bottom: 1px dotted&quot;&gt;navn&lt;/span&gt;" style="ellipse;whiteSpace=wrap;html=1;align=center;" parent="1" vertex="1">
          <mxGeometry x="560" y="520" width="100" height="40" as="geometry" />
        </mxCell>
        <mxCell id="ih8ZZnjObs0xB7PXUDS3-39" value="Bruksområdet" style="ellipse;shape=doubleEllipse;margin=3;whiteSpace=wrap;html=1;align=center;" parent="1" vertex="1">
          <mxGeometry x="700" y="520" width="86" height="40" as="geometry" />
        </mxCell>
        <mxCell id="ih8ZZnjObs0xB7PXUDS3-40" value="" style="endArrow=none;html=1;rounded=0;entryX=0.25;entryY=1;entryDx=0;entryDy=0;exitX=0.5;exitY=0;exitDx=0;exitDy=0;" parent="1" source="ih8ZZnjObs0xB7PXUDS3-38" target="ih8ZZnjObs0xB7PXUDS3-30" edge="1">
          <mxGeometry relative="1" as="geometry">
            <mxPoint x="160" y="460" as="sourcePoint" />
            <mxPoint x="320" y="460" as="targetPoint" />
          </mxGeometry>
        </mxCell>
        <mxCell id="ih8ZZnjObs0xB7PXUDS3-41" value="" style="endArrow=none;html=1;rounded=0;entryX=0.59;entryY=0.975;entryDx=0;entryDy=0;entryPerimeter=0;exitX=0.5;exitY=0;exitDx=0;exitDy=0;" parent="1" source="ih8ZZnjObs0xB7PXUDS3-39" target="ih8ZZnjObs0xB7PXUDS3-30" edge="1">
          <mxGeometry relative="1" as="geometry">
            <mxPoint x="420" y="500" as="sourcePoint" />
            <mxPoint x="320" y="460" as="targetPoint" />
          </mxGeometry>
        </mxCell>
        <mxCell id="ih8ZZnjObs0xB7PXUDS3-43" value="" style="endArrow=none;html=1;rounded=0;entryX=0;entryY=0.5;entryDx=0;entryDy=0;exitX=1;exitY=0.5;exitDx=0;exitDy=0;" parent="1" source="ih8ZZnjObs0xB7PXUDS3-4" target="ih8ZZnjObs0xB7PXUDS3-1" edge="1">
          <mxGeometry relative="1" as="geometry">
            <mxPoint x="-130" y="240" as="sourcePoint" />
            <mxPoint x="50" y="290" as="targetPoint" />
          </mxGeometry>
        </mxCell>
        <mxCell id="ih8ZZnjObs0xB7PXUDS3-44" value="" style="endArrow=none;html=1;rounded=0;exitX=0.5;exitY=1;exitDx=0;exitDy=0;entryX=0.5;entryY=0;entryDx=0;entryDy=0;" parent="1" source="ih8ZZnjObs0xB7PXUDS3-5" target="ih8ZZnjObs0xB7PXUDS3-4" edge="1">
          <mxGeometry relative="1" as="geometry">
            <mxPoint x="-100" y="300" as="sourcePoint" />
            <mxPoint x="60" y="300" as="targetPoint" />
          </mxGeometry>
        </mxCell>
        <mxCell id="ih8ZZnjObs0xB7PXUDS3-45" value="" style="endArrow=none;html=1;rounded=0;exitX=0.5;exitY=1;exitDx=0;exitDy=0;entryX=0.238;entryY=0.125;entryDx=0;entryDy=0;entryPerimeter=0;" parent="1" source="ih8ZZnjObs0xB7PXUDS3-6" target="ih8ZZnjObs0xB7PXUDS3-4" edge="1">
          <mxGeometry relative="1" as="geometry">
            <mxPoint x="-200" y="210" as="sourcePoint" />
            <mxPoint x="70" y="310" as="targetPoint" />
          </mxGeometry>
        </mxCell>
        <mxCell id="ih8ZZnjObs0xB7PXUDS3-47" value="" style="endArrow=none;html=1;rounded=0;entryX=0.425;entryY=0.908;entryDx=0;entryDy=0;entryPerimeter=0;exitX=0.325;exitY=0;exitDx=0;exitDy=0;exitPerimeter=0;" parent="1" source="ih8ZZnjObs0xB7PXUDS3-30" target="ih8ZZnjObs0xB7PXUDS3-29" edge="1">
          <mxGeometry relative="1" as="geometry">
            <mxPoint x="170" y="380" as="sourcePoint" />
            <mxPoint x="330" y="380" as="targetPoint" />
          </mxGeometry>
        </mxCell>
        <mxCell id="ih8ZZnjObs0xB7PXUDS3-48" value="N" style="edgeLabel;html=1;align=center;verticalAlign=middle;resizable=0;points=[];" parent="ih8ZZnjObs0xB7PXUDS3-47" vertex="1" connectable="0">
          <mxGeometry x="0.4228" relative="1" as="geometry">
            <mxPoint as="offset" />
          </mxGeometry>
        </mxCell>
        <mxCell id="ih8ZZnjObs0xB7PXUDS3-51" value="YRKE" style="whiteSpace=wrap;html=1;align=center;" parent="1" vertex="1">
          <mxGeometry x="240" y="450" width="100" height="40" as="geometry" />
        </mxCell>
        <mxCell id="ih8ZZnjObs0xB7PXUDS3-53" value="Utfører" style="shape=rhombus;perimeter=rhombusPerimeter;whiteSpace=wrap;html=1;align=center;" parent="1" vertex="1">
          <mxGeometry x="230" y="320" width="120" height="60" as="geometry" />
        </mxCell>
        <mxCell id="ih8ZZnjObs0xB7PXUDS3-54" value="N" style="endArrow=none;html=1;rounded=0;exitX=0.5;exitY=1;exitDx=0;exitDy=0;entryX=0.5;entryY=0;entryDx=0;entryDy=0;" parent="1" source="ih8ZZnjObs0xB7PXUDS3-1" target="ih8ZZnjObs0xB7PXUDS3-53" edge="1">
          <mxGeometry relative="1" as="geometry">
            <mxPoint x="160" y="350" as="sourcePoint" />
            <mxPoint x="40" y="300" as="targetPoint" />
          </mxGeometry>
        </mxCell>
        <mxCell id="ih8ZZnjObs0xB7PXUDS3-55" value="" style="endArrow=none;html=1;rounded=0;exitX=0.335;exitY=1.025;exitDx=0;exitDy=0;exitPerimeter=0;" parent="1" source="ih8ZZnjObs0xB7PXUDS3-51" target="ih8ZZnjObs0xB7PXUDS3-56" edge="1">
          <mxGeometry relative="1" as="geometry">
            <mxPoint x="160" y="430" as="sourcePoint" />
            <mxPoint x="320" y="430" as="targetPoint" />
          </mxGeometry>
        </mxCell>
        <mxCell id="ih8ZZnjObs0xB7PXUDS3-56" value="Tittel" style="ellipse;whiteSpace=wrap;html=1;align=center;fontStyle=4;" parent="1" vertex="1">
          <mxGeometry x="180" y="530" width="100" height="40" as="geometry" />
        </mxCell>
        <mxCell id="ih8ZZnjObs0xB7PXUDS3-57" value="Lønn" style="ellipse;whiteSpace=wrap;html=1;align=center;" parent="1" vertex="1">
          <mxGeometry x="300" y="530" width="100" height="40" as="geometry" />
        </mxCell>
        <mxCell id="ih8ZZnjObs0xB7PXUDS3-58" value="" style="endArrow=none;html=1;rounded=0;exitX=0.5;exitY=0;exitDx=0;exitDy=0;entryX=0.58;entryY=1.013;entryDx=0;entryDy=0;entryPerimeter=0;" parent="1" source="ih8ZZnjObs0xB7PXUDS3-57" target="ih8ZZnjObs0xB7PXUDS3-51" edge="1">
          <mxGeometry relative="1" as="geometry">
            <mxPoint x="140" y="500" as="sourcePoint" />
            <mxPoint x="300" y="500" as="targetPoint" />
          </mxGeometry>
        </mxCell>
        <mxCell id="ih8ZZnjObs0xB7PXUDS3-64" value="" style="endArrow=none;html=1;rounded=0;exitX=0.5;exitY=1;exitDx=0;exitDy=0;entryX=0.5;entryY=0;entryDx=0;entryDy=0;" parent="1" source="ih8ZZnjObs0xB7PXUDS3-53" target="ih8ZZnjObs0xB7PXUDS3-51" edge="1">
          <mxGeometry relative="1" as="geometry">
            <mxPoint x="110" y="450" as="sourcePoint" />
            <mxPoint x="270" y="450" as="targetPoint" />
          </mxGeometry>
        </mxCell>
        <mxCell id="ih8ZZnjObs0xB7PXUDS3-65" value="M" style="edgeLabel;html=1;align=center;verticalAlign=middle;resizable=0;points=[];" parent="ih8ZZnjObs0xB7PXUDS3-64" vertex="1" connectable="0">
          <mxGeometry x="-0.5111" relative="1" as="geometry">
            <mxPoint as="offset" />
          </mxGeometry>
        </mxCell>
        <mxCell id="ih8ZZnjObs0xB7PXUDS3-66" value="Start_dato" style="ellipse;whiteSpace=wrap;html=1;align=center;" parent="1" vertex="1">
          <mxGeometry x="350" y="330" width="100" height="40" as="geometry" />
        </mxCell>
        <mxCell id="ih8ZZnjObs0xB7PXUDS3-67" value="Slutt_dato" style="ellipse;whiteSpace=wrap;html=1;align=center;" parent="1" vertex="1">
          <mxGeometry x="360" y="380" width="100" height="40" as="geometry" />
        </mxCell>
        <mxCell id="ih8ZZnjObs0xB7PXUDS3-68" value="" style="endArrow=none;html=1;rounded=0;exitX=0.908;exitY=0.408;exitDx=0;exitDy=0;exitPerimeter=0;entryX=0.055;entryY=0.288;entryDx=0;entryDy=0;entryPerimeter=0;" parent="1" source="ih8ZZnjObs0xB7PXUDS3-53" target="ih8ZZnjObs0xB7PXUDS3-66" edge="1">
          <mxGeometry relative="1" as="geometry">
            <mxPoint x="110" y="450" as="sourcePoint" />
            <mxPoint x="270" y="450" as="targetPoint" />
          </mxGeometry>
        </mxCell>
        <mxCell id="ih8ZZnjObs0xB7PXUDS3-69" value="" style="endArrow=none;html=1;rounded=0;entryX=0;entryY=0;entryDx=0;entryDy=0;" parent="1" source="ih8ZZnjObs0xB7PXUDS3-53" target="ih8ZZnjObs0xB7PXUDS3-67" edge="1">
          <mxGeometry relative="1" as="geometry">
            <mxPoint x="110" y="450" as="sourcePoint" />
            <mxPoint x="270" y="450" as="targetPoint" />
          </mxGeometry>
        </mxCell>
      </root>
    </mxGraphModel>
  </diagram>
</mxfile>
